<?xml version="1.0" encoding="UTF-8"?>
<svg id="Layer_1" xmlns="http://www.w3.org/2000/svg" baseProfile="tiny" version="1.2" viewBox="0 0 841.8898 284.0276">
  <!-- Generator: Adobe Illustrator 30.0.0, SVG Export Plug-In . SVG Version: 2.1.1 Build 123)  -->
  <g>
    <path d="M253.2961-2.6351v313.3418H0V-2.6351h253.2961ZM171.1365,32.5892c3.8537,23.2128-3.3605,38.8266-19.9774,54.1636-10.8679,10.0308-26.8044,22.3518-39.1315,30.5767-12.0007,8.0072-27.1175,12.8808-34.5935,26.1424-2.9162,5.1731-5.9669,13.9746-3.2294,19.5325.9124.1923,1.5624-.7745,2.0038-1.4333,2.3306-3.4783,3.8923-8.5572,6.7409-12.5839,15.6271-22.0904,47.3511-25.8714,67.5197-43.5993,22.6182-19.8811,29.0042-51.7155,25.4554-80.6894-.1937-1.5811-2.2807-12.8321-3.0343-12.8259-6.2741,9.0521-13.603,15.9911-22.7564,22.0914-14.9594,9.9696-29.4853,13.5811-39.9851,29.7231-6.5132,10.0131-10.7302,24.8202-7.6602,36.5114,3.1068-7.2823,4.0226-14.6429,7.8159-21.8619,11.557-21.9945,38.6997-31.8122,58.1296-45.3965l2.7026-.3508ZM77.9834,108.4838c-1.4393-5.3441-5.0698-9.5485-7.0249-14.7088-3.8926-10.2746-3.6169-20.2691-2.5212-31.0786l1.602-1.1393c9.7546,10.1862,15.1755,26.3014,14.1515,40.3583-.0945,1.2979-2.6119,9.3779-.334,9.3153,5.733-10.0752,5.1583-23.9838,2.6515-35.0761-2.6282-11.6295-11.3279-28.7438-22.3987-34.1923-2.3604-1.1616-3.7285-2.0237-4.0975,1.2665-1.1261,10.041-.3016,29.4369,2.2704,39.207,2.3868,9.0665,8.1256,20.4524,15.7009,26.048ZM66.2536,122.2841c-6.9776-21.5832-28.2973-36.4082-49.6856-41.4056-1.2099,5.8357,5.5392,14.3426,10.4206,16.836,11.2451,5.7441,21.6655,6.7603,31.6057,16.7069.8178.8183,6.4973,9.1195,7.6593,7.8627ZM99.3895,145.7501c.8519.8663,19.5012-8.9452,22.0885-9.9978,20.9234-8.5118,42.2337-11.899,61.9221,1.5618,3.5701,2.4409,6.398,5.5595,9.8624,8.1028,2.3388.8156.1228-6.7603-.3453-7.9574-9.4974-24.2909-47.5142-17.5259-66.3971-9.7785-6.4548,2.6483-21.7452,10.8707-26.2759,15.7982-.5045.5487-1.7317,1.3791-.8548,2.2709Z" display="none" fill="#046938"/>
    <path d="M171.1365,32.5892l-2.7026.3508c-19.4299,13.5842-46.5726,23.402-58.1296,45.3965-3.7932,7.219-4.7091,14.5796-7.8159,21.8619-3.07-11.6912,1.147-26.4983,7.6602-36.5114,10.4998-16.142,25.0257-19.7535,39.9851-29.7231,9.1535-6.1003,16.4823-13.0393,22.7564-22.0914.7537-.0062,2.8407,11.2449,3.0343,12.8259,3.5488,28.9739-2.8372,60.8083-25.4554,80.6894-20.1686,17.7279-51.8925,21.5089-67.5197,43.5993-2.8486,4.0267-4.4103,9.1056-6.7409,12.5839-.4414.6588-1.0914,1.6256-2.0038,1.4333-2.7375-5.5579.3132-14.3594,3.2294-19.5325,7.476-13.2616,22.5928-18.1352,34.5935-26.1424,12.3271-8.2249,28.2636-20.5459,39.1315-30.5767,16.6169-15.337,23.8311-30.9508,19.9774-54.1636Z" fill="#046938"/>
    <path d="M86.5084,76.1546c-2.6282-11.6295-11.3279-28.7438-22.3988-34.1923-2.3604-1.1616-3.7285-2.0237-4.0975,1.2665-1.1261,10.0411-.3017,29.4369,2.2704,39.207,2.3868,9.0665,8.1256,20.4524,15.7008,26.048-1.4393-5.3441-5.0698-9.5484-7.0248-14.7087-3.2638-8.6149-3.5933-17.0354-2.9695-25.9024-.0051-.5228.0074-1.0444.0183-1.5536.0174-.8169-.0391-1.6349-.098-2.4526.1163-1.0583.1997-2.1154.2728-3.1753.0101-.0136.0214-.0259.0313-.0396.1396-.192.2387-.4131.3258-.6375.0629.0324.1279.0613.1884.0981.7134.7898,1.4268,1.5797,2.1401,2.3695.0036.004.0085.0066.0122.0106,9.216,10.2185,14.3046,25.7818,13.3109,39.4233-.0945,1.2978-2.6119,9.3779-.334,9.3153,5.733-10.0752,5.1583-23.9838,2.6515-35.0761Z" fill="#046938"/>
    <path d="M99.3895,145.7501c-.8769-.8918.3502-1.7222.8548-2.2709,4.5307-4.9274,19.8212-13.1499,26.2759-15.7982,18.8829-7.7473,56.8997-14.5124,66.3971,9.7785.4681,1.1971,2.6841,8.773.3453,7.9574-3.4643-2.5433-6.2923-5.662-9.8624-8.1028-19.6884-13.4609-40.9987-10.0736-61.9221-1.5618-2.5874,1.0526-21.2367,10.8641-22.0885,9.9978Z" fill="#046938"/>
    <path d="M66.2536,122.2841c-1.162,1.2568-6.8416-7.0444-7.6593-7.8627-9.9401-9.9466-20.3606-10.9629-31.6057-16.7069-4.8813-2.4934-11.6305-11.0003-10.4206-16.836,21.3883,4.9974,42.708,19.8223,49.6856,41.4056Z" fill="#046938"/>
    <path d="M95.935,208.9051c.19-.6643,1.4955-1.3859,2.2949-.9264,4.5751,4.2382,19.7968,9.2242,21.5435,15.0429,1.2047,4.0134-.5574,9.0106-5.2247,8.0521-1.0546-.2166-14.629-7.7842-16.0837-8.8243-.9457-.6762-1.759-1.4377-2.5299-2.3013v-11.0429Z" display="none" fill="#046938"/>
    <path d="M95.935,237.2025c.2738-.9987,1.2147-.9565,2.0998-.7377,1.4487.3581,15.5352,8.682,17.5442,10.0813,3.534,2.4615,5.7501,5.1833,4.3662,9.8408-.5593,1.8823-3.5852,3.5081-5.5216,3.1045-1.3708-.2857-14.6581-8.0726-16.2491-9.3445-.6448-.5155-2.2396-1.886-2.2396-2.5917v-10.3527Z" display="none" fill="#046938"/>
    <path d="M185.4929,210.7717c7.8917-1.9963,7.5958,12.2277,5.2854,16.3666-1.3444,2.4082-15.4099,10.9764-17.9572,11.072-6.015.2258-5.5854-8.5703-5.1068-12.74s2.5862-5.7526,5.8494-7.9546c1.5298-1.0323,10.8049-6.4595,11.9292-6.7439Z" display="none" fill="#046938"/>
  </g>
  <path d="M195.3037,175.3479c-.5521.3451-.8972.6212-1.3113.8972-15.7361,9.7315-31.4722,19.4631-47.1393,29.2636-2.0705,1.3113-4.003,1.4494-6.2806.069-15.46-9.1794-31.0581-18.2208-46.5872-27.3311-.8282-.4831-1.5874-1.0353-2.4847-1.5874.3451-.3451.6212-.5521.8972-.7592,15.8741-9.8696,31.8173-19.7392,47.6915-29.6087,1.7945-1.1043,3.3819-1.0353,5.2454,0,4.2101,2.4846,8.4892,4.8313,12.6993,7.2469.4141.2071.7592.4831,1.4494.8972-4.2101,2.5537-8.2131,5.0383-12.2852,7.3159-.6902.3451-1.8635,0-2.7607-.2071-3.3819-.8972-6.6947-1.0353-10.0076.2071-1.1733.4141-2.3466.9663-3.3819,1.6564-2.7607,1.7945-5.5214,3.658-8.2131,5.5905-.8282.5521-1.5184,1.2423-2.1396,2.0015-1.5184,1.7255-1.4494,3.3819.3451,4.8313,1.5184,1.2423,3.2438,2.2776,4.9003,3.3129,4.8313,3.0368,9.7315,6.0046,14.6318,8.9723,3.0368,1.8635,6.2806,3.1748,10.0076,2.2776.9662-.2071,1.9325-.6212,2.7607-1.1043,4.6932-2.7607,9.3865-5.5905,14.0797-8.4892,1.8635-1.1733,3.1058-2.8297,3.1058-5.0383,0-1.7255-.9662-2.8297-2.6917-3.1748-3.6579-.7592-6.9018.138-10.0076,1.9325-1.8635,1.0353-3.727,2.1396-5.6595,3.1748-1.7945,1.0353-3.5889.9663-5.2454-.2761-1.1733-.8282-2.3466-1.6564-3.658-2.5537.3451-.2761.6212-.4831.8972-.6212,7.3159-4.2791,14.7008-8.6273,22.0168-12.9064,2.1396-1.3113,4.0721-1.2423,6.2806.138,7.1088,4.4862,14.3557,8.7653,21.5336,13.1134.3451.138.7592.4141,1.3113.7592Z" fill="#046938"/>
  <path d="M199.5828,186.6668c0-.5521-.207-1.0353-.3451-1.7255-.4831.2071-.6902.3451-.8972.4831-15.5981,9.1794-31.1962,18.4278-46.8632,27.6072-2.0705,1.2423-2.9678,2.7607-2.9678,5.1073.069,16.4953,0,32.9906,0,49.4859v1.5874c.5521-.2071.8282-.2761,1.1043-.4141,3.4509-1.8635,6.9018-3.727,10.3527-5.6595,2.0705-1.1733,3.5199-2.9678,3.6579-5.1764.207-3.865,0-7.73-.069-11.595,0-2.5537-.069-5.1073,2.4847-6.6947,1.5184-.9662,3.1058-1.7945,4.7622-2.6227,2.6917-1.3113,5.3834-2.6917,8.2822-3.727,2.6227-.8972,3.934-.138,4.4171,2.4847.4831,2.8297.5521,5.6595.8282,8.5582.138,1.3804.207,2.6917.3451,4.2101.5521-.3451.9662-.5521,1.3804-.8282,3.4509-2.2086,6.9018-4.4171,10.3527-6.5567,2.0705-1.2423,2.9678-2.8988,2.9678-5.3144,0-6.2806.138-12.5613.207-18.8419.069-10.1456.069-20.2223,0-30.3679ZM178.8774,222.8323c-4.0721,1.9325-8.0751,3.934-12.0782,5.9356-.6212.2761-1.1043.2761-1.3804-.3451-2.2086-4.7622-3.3129-10.6978,2.4156-14.2867,2.6227-1.6564,5.2454-3.2438,8.0061-4.7622.8282-.4831,1.8635-.6902,2.8297-.8282,2.3466-.2761,4.2101,1.5874,4.3481,4.2791v1.3804c0,.2071.069.4831.069.6902.069.5521.138,1.1043.069,1.6564.3451,3.1058-1.5184,4.9003-4.2791,6.2806Z" fill="#046938"/>
  <path d="M87.4976,186.3908c1.1043.6212,1.9325,1.1043,2.7607,1.5874,15.391,8.7653,30.713,17.5306,46.173,26.2959,2.5537,1.4494,3.796,3.2438,3.658,6.1426-.2071,5.2454-.069,10.5598,0,15.8741s.138,10.5598.138,15.8741c0,5.5905-.138,11.1809-.2071,16.7024,0,.3451-.069.7592-.069,1.3113-.4831-.2071-.8282-.3451-1.1043-.4831-16.0812-9.1794-32.1624-18.3588-48.2436-27.5382-.8972-.5521-1.8635-1.1733-2.4847-2.0015-.5521-.6902-.8972-1.6564-.8972-2.4847-.069-8.6963-.069-17.3925,0-26.0888.069-7.9371.138-15.8741.2071-23.8112,0-.4831,0-.7592.069-1.3804ZM100.542,224.8338c-.069.4831-.138.7592-.138.9662,0,5.1764-.069,10.2837.069,15.46,0,.5521.6212,1.3113,1.1043,1.5874,4.3481,2.4847,8.7653,4.9003,13.1824,7.2469,1.1043.6212,2.4156.9662,3.658,1.2423,5.1764.9662,8.4202-2.0705,7.4539-6.9708-.7592-3.796-3.0368-6.6947-6.4187-8.7653-5.5905-3.3819-11.1809-6.6257-16.8404-9.8696-.6212-.3451-1.2423-.5521-2.0706-.8972ZM100.749,200.8845c-.069.4831-.138.6902-.138.9662,0,5.1764-.069,10.3527.069,15.46,0,.5521.5521,1.2423,1.0353,1.5184,4.4171,2.4847,8.8343,4.9003,13.2515,7.3159,1.6564.8972,3.4509,1.1733,5.3834,1.3113,4.6242.2071,6.2116-3.1058,5.7975-6.4877-.5521-4.0721-2.8988-7.1089-6.4877-9.2484-5.6595-3.4509-11.457-6.6947-17.1855-10.0766-.4831-.2761-1.0353-.4141-1.7255-.7592Z" fill="#046938"/>
  <g>
    <path d="M228.6323,141.2971h11.1489c3.521,0,6.1885.3193,8.0029.957,1.8135.6377,3.2778,1.9277,4.3931,3.8711,1.1147,1.9443,1.6719,5.0762,1.6719,9.3955,0,2.9209-.394,4.957-1.1812,6.1094-.7876,1.1523-2.3403,2.0361-4.6582,2.6533,2.5835.6797,4.3354,1.8066,5.2554,3.3828.9199,1.5752,1.3804,3.9902,1.3804,7.2441v4.6338c0,3.3779-.3315,5.8799-.9951,7.5068s-1.7212,2.7393-3.1724,3.3369c-1.4512.5967-4.4238.8955-8.9185.8955h-12.9272v-49.9863ZM239.8076,149.8499v11.1143c.4775-.0195.8491-.0303,1.1147-.0303,1.0972,0,1.7959-.3135,2.0972-.9424.3003-.627.4512-2.4229.4512-5.3877,0-1.5635-.124-2.6592-.3716-3.2881-.248-.627-.5708-1.0234-.9688-1.1885-.3984-.1641-1.1729-.2568-2.3228-.2773ZM239.8076,168.7444v13.9863c1.5747-.0615,2.5786-.3496,3.0127-.8643.4336-.5137.6504-1.7803.6504-3.7979v-4.6621c0-2.1396-.1948-3.4365-.584-3.8896-.3896-.4531-1.416-.71-3.0791-.7725Z" fill="#046938"/>
    <path d="M267.918,166.1819h-10.0601v-2.7471c0-3.1699.314-5.6143.9419-7.333s1.8892-3.2363,3.7827-4.5547c1.8936-1.3164,4.353-1.9756,7.3794-1.9756,3.6274,0,6.3613.7461,8.2021,2.2383,1.8398,1.4932,2.9463,3.3242,3.3179,5.4961s.5571,6.6436.5571,13.415v20.5625h-10.4316v-3.6514c-.6548,1.4648-1.4995,2.5625-2.5347,3.2939-1.0356.7324-2.2695,1.0986-3.7031,1.0986-1.876,0-3.5967-.6133-5.1626-1.8369-1.5664-1.2246-2.3491-3.9062-2.3491-8.043v-3.3652c0-3.0674.4155-5.1562,1.2476-6.2676.8315-1.1123,2.8931-2.4082,6.1846-3.8906,3.521-1.6055,5.4058-2.6865,5.6538-3.2422.2476-.5557.3716-1.6875.3716-3.3955,0-2.1406-.1372-3.5352-.4111-4.1836-.2749-.6484-.73-.9727-1.3672-.9727-.7261,0-1.1772.2725-1.354.8184-.1768.5449-.2651,1.96-.2651,4.2451v4.291ZM271.3154,171.801c-1.7168,1.4619-2.7119,2.6865-2.9863,3.6748-.2744.9873-.4111,2.4082-.4111,4.2607,0,2.1201.1191,3.4883.3584,4.1064.2388.6172.7119.9258,1.4199.9258.6724,0,1.1104-.2412,1.314-.7256.2031-.4834.3052-1.7549.3052-3.8125v-8.4297Z" fill="#046938"/>
    <path d="M296.6382,150.3128l-.186,3.7744c.7788-1.5049,1.7295-2.6338,2.8535-3.3867,1.1235-.7529,2.4199-1.1289,3.8887-1.1289,1.8403,0,3.3447.5049,4.5127,1.5127,1.168,1.0088,1.9199,2.2803,2.2563,3.8135.3359,1.5332.5044,4.0908.5044,7.6719v28.7139h-10.7241v-28.374c0-2.8193-.0796-4.5381-.2388-5.1562-.1592-.6172-.6016-.9258-1.3271-.9258-.7612,0-1.2388.3545-1.4336,1.0654-.1948.71-.292,2.6084-.292,5.6963v27.6943h-10.7236v-40.9707h10.9097Z" fill="#046938"/>
    <path d="M325.0669,150.3128l-.186,3.7744c.7788-1.5049,1.7295-2.6338,2.8535-3.3867,1.1235-.7529,2.4199-1.1289,3.8887-1.1289,1.8403,0,3.3447.5049,4.5127,1.5127,1.168,1.0088,1.9199,2.2803,2.2563,3.8135.3359,1.5332.5044,4.0908.5044,7.6719v28.7139h-10.7241v-28.374c0-2.8193-.0796-4.5381-.2388-5.1562-.1592-.6172-.6016-.9258-1.3271-.9258-.7612,0-1.2388.3545-1.4336,1.0654-.1948.71-.292,2.6084-.292,5.6963v27.6943h-10.7236v-40.9707h10.9097Z" fill="#046938"/>
    <path d="M352.1685,166.1819h-10.0601v-2.7471c0-3.1699.314-5.6143.9419-7.333s1.8892-3.2363,3.7827-4.5547c1.8936-1.3164,4.353-1.9756,7.3794-1.9756,3.6274,0,6.3613.7461,8.2021,2.2383,1.8398,1.4932,2.9463,3.3242,3.3179,5.4961s.5571,6.6436.5571,13.415v20.5625h-10.4316v-3.6514c-.6548,1.4648-1.4995,2.5625-2.5347,3.2939-1.0356.7324-2.2695,1.0986-3.7031,1.0986-1.876,0-3.5967-.6133-5.1626-1.8369-1.5664-1.2246-2.3491-3.9062-2.3491-8.043v-3.3652c0-3.0674.4155-5.1562,1.2476-6.2676.8315-1.1123,2.8931-2.4082,6.1846-3.8906,3.521-1.6055,5.4058-2.6865,5.6538-3.2422.2476-.5557.3716-1.6875.3716-3.3955,0-2.1406-.1372-3.5352-.4111-4.1836-.2749-.6484-.73-.9727-1.3672-.9727-.7261,0-1.1772.2725-1.354.8184-.1768.5449-.2651,1.96-.2651,4.2451v4.291ZM355.5659,171.801c-1.7168,1.4619-2.7119,2.6865-2.9863,3.6748-.2744.9873-.4111,2.4082-.4111,4.2607,0,2.1201.1191,3.4883.3584,4.1064.2388.6172.7119.9258,1.4199.9258.6724,0,1.1104-.2412,1.314-.7256.2031-.4834.3052-1.7549.3052-3.8125v-8.4297Z" fill="#046938"/>
    <path d="M380.7031,150.3128l-.4243,5.3877c1.5566-3.8584,3.813-5.9014,6.7686-6.1289v14.4189c-1.9644,0-3.4067.3086-4.3267.9258-.9204.6172-1.4863,1.4775-1.6987,2.5781-.2124,1.1016-.3188,3.6387-.3188,7.6104v16.1787h-10.7236v-40.9707h10.7236Z" fill="#046938"/>
    <path d="M400.4785,141.2971v6.5146h-11.0425v-6.5146h11.0425ZM400.4785,150.3128v40.9707h-11.0425v-40.9707h11.0425Z" fill="#046938"/>
    <path d="M433.5449,141.2971l6.3906,49.9863h-11.4199l-.5996-8.9844h-3.998l-.6719,8.9844h-11.5527l5.7002-49.9863h16.1514ZM427.623,173.4378c-.5664-5.6611-1.1338-12.6592-1.7021-20.9951-1.1387,9.5723-1.8535,16.5703-2.1445,20.9951h3.8467Z" fill="#046938"/>
    <path d="M452.1055,150.3128l-.1855,3.8975c.832-1.5459,1.8223-2.7061,2.9727-3.4785,1.1504-.7734,2.46-1.1602,3.9287-1.1602,2.8672,0,5.123,1.5469,6.7686,4.6387.9023-1.5459,1.9199-2.7061,3.0527-3.4785,1.1328-.7734,2.3887-1.1602,3.7695-1.1602,1.8223,0,3.3311.5146,4.5254,1.5439s1.96,2.29,2.2959,3.7822.5049,3.916.5049,7.2705v29.1152h-10.4053v-26.707c0-3.499-.1025-5.665-.3057-6.499-.2031-.833-.6768-1.25-1.4199-1.25-.7607,0-1.252.4121-1.4736,1.2344-.2207.8242-.3311,2.9951-.3311,6.5146v26.707h-10.4053v-26.0273c0-4.0137-.084-6.4219-.252-7.2246-.1689-.8027-.6338-1.2041-1.3936-1.2041-.4785,0-.8857.2109-1.2217.6328s-.5225.9365-.5576,1.5439-.0527,1.8984-.0527,3.874v28.4053h-10.4053v-40.9707h10.5908Z" fill="#046938"/>
    <path d="M494.0186,150.3128l-.1855,3.8975c.832-1.5459,1.8223-2.7061,2.9727-3.4785,1.1504-.7734,2.46-1.1602,3.9287-1.1602,2.8672,0,5.123,1.5469,6.7686,4.6387.9023-1.5459,1.9199-2.7061,3.0527-3.4785,1.1328-.7734,2.3887-1.1602,3.7695-1.1602,1.8223,0,3.3311.5146,4.5254,1.5439s1.96,2.29,2.2959,3.7822.5049,3.916.5049,7.2705v29.1152h-10.4053v-26.707c0-3.499-.1025-5.665-.3057-6.499-.2031-.833-.6768-1.25-1.4199-1.25-.7607,0-1.252.4121-1.4736,1.2344-.2207.8242-.3311,2.9951-.3311,6.5146v26.707h-10.4053v-26.0273c0-4.0137-.084-6.4219-.252-7.2246-.1689-.8027-.6338-1.2041-1.3936-1.2041-.4785,0-.8857.2109-1.2217.6328s-.5225.9365-.5576,1.5439-.0527,1.8984-.0527,3.874v28.4053h-10.4053v-40.9707h10.5908Z" fill="#046938"/>
    <path d="M534.9229,166.1819h-10.0596v-2.7471c0-3.1699.3135-5.6143.9424-7.333.6279-1.7188,1.8887-3.2363,3.7822-4.5547,1.8936-1.3164,4.3535-1.9756,7.3789-1.9756,3.6279,0,6.3613.7461,8.2021,2.2383,1.8408,1.4932,2.9463,3.3242,3.3184,5.4961.3711,2.1719.5576,6.6436.5576,13.415v20.5625h-10.4316v-3.6514c-.6553,1.4648-1.5,2.5625-2.5352,3.2939-1.0352.7324-2.2695,1.0986-3.7031,1.0986-1.876,0-3.5967-.6133-5.1631-1.8369-1.5654-1.2246-2.3486-3.9062-2.3486-8.043v-3.3652c0-3.0674.415-5.1562,1.2471-6.2676.832-1.1123,2.8936-2.4082,6.1846-3.8906,3.5215-1.6055,5.4062-2.6865,5.6543-3.2422s.3721-1.6875.3721-3.3955c0-2.1406-.1377-3.5352-.4121-4.1836s-.7295-.9727-1.3672-.9727c-.7256,0-1.1768.2725-1.3535.8184-.1768.5449-.2656,1.96-.2656,4.2451v4.291ZM538.3213,171.801c-1.7168,1.4619-2.7129,2.6865-2.9863,3.6748-.2744.9873-.4121,2.4082-.4121,4.2607,0,2.1201.1201,3.4883.3584,4.1064.2393.6172.7129.9258,1.4209.9258.6719,0,1.1094-.2412,1.3135-.7256.2031-.4834.3057-1.7549.3057-3.8125v-8.4297Z" fill="#046938"/>
    <path d="M563.6436,150.3128l-.1855,3.7744c.7783-1.5049,1.7295-2.6338,2.8535-3.3867s2.4199-1.1289,3.8887-1.1289c1.8408,0,3.3447.5049,4.5127,1.5127,1.168,1.0088,1.9199,2.2803,2.2559,3.8135s.5049,4.0908.5049,7.6719v28.7139h-10.7236v-28.374c0-2.8193-.0801-4.5381-.2393-5.1562-.1592-.6172-.6016-.9258-1.3271-.9258-.7607,0-1.2393.3545-1.4336,1.0654-.1943.71-.292,2.6084-.292,5.6963v27.6943h-10.7236v-40.9707h10.9092Z" fill="#046938"/>
    <path d="M614.7412,156.426h-10.3789v-3.7051c0-1.7295-.1328-2.8301-.3984-3.3037s-.708-.71-1.3271-.71c-.6729,0-1.1807.3193-1.5264.958-.3447.6387-.5176,1.6064-.5176,2.9043,0,1.668.1943,2.9248.582,3.7686.3701.8447,1.4229,1.8643,3.1582,3.0566,4.9746,3.4346,8.1074,6.2529,9.3994,8.4551,1.291,2.2021,1.9375,5.7529,1.9375,10.6514,0,3.5615-.3584,6.1855-1.0752,7.873-.7168,1.6885-2.1016,3.1025-4.1543,4.2451s-4.4414,1.7139-7.167,1.7139c-2.9902,0-5.543-.6592-7.6572-1.9756-2.1152-1.3174-3.5-2.9951-4.1543-5.0332-.6553-2.0371-.9824-4.9297-.9824-8.6758v-3.2725h10.3789v6.082c0,1.873.1465,3.0771.4385,3.6123.291.5361.8096.8027,1.5527.8027s1.2959-.3398,1.6582-1.0186c.3633-.6797.5449-1.6875.5449-3.0254,0-2.9434-.3457-4.8682-1.0352-5.7744-.708-.9053-2.4512-2.418-5.2295-4.5381-2.7783-2.1406-4.6191-3.6943-5.5215-4.6621s-1.6504-2.3047-2.2432-4.0137c-.5928-1.708-.8887-3.8906-.8887-6.5459,0-3.8281.4199-6.627,1.2607-8.3975.8398-1.7705,2.1982-3.1543,4.0742-4.1533,1.876-.998,4.1416-1.4971,6.7959-1.4971,2.9014,0,5.375.5459,7.4189,1.6367s3.3975,2.4648,4.0605,4.1211c.6641,1.6572.9961,4.4727.9961,8.4443v1.9766Z" fill="#046938"/>
    <path d="M643.4092,150.3128v40.9707h-10.9102l.1855-3.4043c-.7432,1.3818-1.6582,2.418-2.7471,3.1094-1.0879.6904-2.3398,1.0361-3.7559,1.0361-1.6104,0-2.9463-.3301-4.0078-.9883-1.0625-.6582-1.8447-1.5332-2.3496-2.624-.5039-1.0908-.8184-2.2285-.9424-3.4121s-.1855-3.5352-.1855-7.0547v-27.6328h10.7236v27.8799c0,3.1904.084,5.084.252,5.6807.168.5977.624.8955,1.3672.8955.7969,0,1.2695-.3086,1.4199-.9258.1504-.6182.2256-2.6045.2256-5.959v-27.5713h10.7246Z" fill="#046938"/>
    <path d="M671.625,150.3128v31.5537c0,4.2607-.084,7.0137-.252,8.2588s-.7656,2.5635-1.792,3.9521c-1.0264,1.3896-2.4551,2.4492-4.2861,3.1807-1.832.7305-4.1367,1.0957-6.915,1.0957-3.416,0-6.1582-.6748-8.2285-2.0225-2.0703-1.3486-3.1416-3.998-3.2119-7.9502h10.4053c0,1.8115.5664,2.7168,1.6982,2.7168.8145,0,1.3545-.2773,1.6191-.834.2656-.5566.3984-1.7207.3984-3.4922v-3.0908c-.9199.9697-1.8887,1.7021-2.9062,2.1973-1.0176.4961-2.084.7432-3.1982.7432-1.9297,0-3.5176-.4521-4.7646-1.3584-1.248-.9053-2.1016-2.0947-2.5615-3.5664-.4609-1.4707-.6904-3.5654-.6904-6.2832v-14.8809c0-3.8906.6016-6.6895,1.8047-8.3984,1.2031-1.708,3.0352-2.5625,5.4951-2.5625,1.3447,0,2.5703.3203,3.6758.959,1.1055.6396,2.0928,1.5986,2.96,2.877l.7695-3.0947h9.9805ZM660.875,161.1809c0-1.873-.0928-3.0674-.2783-3.582-.1865-.5137-.5977-.7715-1.2344-.7715-.6201,0-1.0576.293-1.3145.8799s-.3848,1.7441-.3848,3.4736v13.7695c0,1.832.0967,3.0215.292,3.5664.1943.5459.6016.8184,1.2207.8184.708,0,1.168-.3291,1.3809-.9883.2119-.6582.3184-2.1504.3184-4.4766v-12.6895Z" fill="#046938"/>
    <path d="M685.0293,166.1819h-10.0596v-2.7471c0-3.1699.3135-5.6143.9424-7.333.6279-1.7188,1.8887-3.2363,3.7822-4.5547,1.8936-1.3164,4.3535-1.9756,7.3789-1.9756,3.6279,0,6.3613.7461,8.2021,2.2383,1.8408,1.4932,2.9463,3.3242,3.3184,5.4961.3711,2.1719.5576,6.6436.5576,13.415v20.5625h-10.4316v-3.6514c-.6553,1.4648-1.5,2.5625-2.5352,3.2939-1.0352.7324-2.2695,1.0986-3.7031,1.0986-1.876,0-3.5967-.6133-5.1631-1.8369-1.5654-1.2246-2.3486-3.9062-2.3486-8.043v-3.3652c0-3.0674.415-5.1562,1.2471-6.2676.832-1.1123,2.8936-2.4082,6.1846-3.8906,3.5215-1.6055,5.4062-2.6865,5.6543-3.2422s.3721-1.6875.3721-3.3955c0-2.1406-.1377-3.5352-.4121-4.1836s-.7295-.9727-1.3672-.9727c-.7256,0-1.1768.2725-1.3535.8184-.1768.5449-.2656,1.96-.2656,4.2451v4.291ZM688.4277,171.801c-1.7168,1.4619-2.7129,2.6865-2.9863,3.6748-.2744.9873-.4121,2.4082-.4121,4.2607,0,2.1201.1201,3.4883.3584,4.1064.2393.6172.7129.9258,1.4209.9258.6719,0,1.1094-.2412,1.3135-.7256.2031-.4834.3057-1.7549.3057-3.8125v-8.4297Z" fill="#046938"/>
    <path d="M713.5645,150.3128l-.4248,5.3877c1.5576-3.8584,3.8135-5.9014,6.7686-6.1289v14.4189c-1.9639,0-3.4062.3086-4.3262.9258s-1.4863,1.4775-1.6992,2.5781c-.2119,1.1016-.3184,3.6387-.3184,7.6104v16.1787h-10.7236v-40.9707h10.7236Z" fill="#046938"/>
    <path d="M744.1953,163.4036h-9.502v-2.2227c0-1.8936-.0938-3.0928-.2793-3.5977-.1855-.5039-.6504-.7559-1.3936-.7559-.6016,0-1.0527.2314-1.3535.6943s-.4512,1.1582-.4512,2.084c0,1.2559.0752,2.1768.2256,2.7637.1504.5859.6016,1.2295,1.3535,1.9297s2.2959,1.7188,4.6318,3.0566c3.1143,1.7705,5.1582,3.4375,6.1318,5.002.9727,1.5645,1.46,3.8389,1.46,6.8232,0,3.334-.3721,5.8506-1.1152,7.5488s-1.9863,3.0049-3.7295,3.9209c-1.7432.915-3.8447,1.374-6.3037,1.374-2.7256,0-5.0566-.4941-6.9941-1.4824-1.9375-.9873-3.2695-2.3252-3.9951-4.0137-.7256-1.6875-1.0879-4.2402-1.0879-7.6572v-1.9756h9.502v2.5938c0,2.2021.1201,3.6328.3584,4.291.2393.6592.7129.9883,1.4209.9883.7598,0,1.291-.2207,1.5918-.6641.3008-.4424.4512-1.374.4512-2.7939,0-1.9551-.1943-3.1797-.583-3.6738-.4082-.4941-2.4873-1.9551-6.2383-4.3848-3.1504-2.0576-5.0703-3.9258-5.7598-5.6035-.6904-1.6777-1.0352-3.6689-1.0352-5.9746,0-3.2725.3711-5.6855,1.1143-7.2393.7432-1.5547,2.0039-2.7529,3.7832-3.5977,1.7783-.8438,3.8438-1.2656,6.1973-1.2656,2.3359,0,4.3223.3447,5.959,1.0342,1.6367.6904,2.8936,1.6006,3.7695,2.7324.876,1.1328,1.4072,2.1826,1.5928,3.1494.1855.9678.2783,2.4805.2783,4.5391v2.377Z" fill="#046938"/>
    <path d="M768.9609,141.2971v39.9824h6.7959v10.0039h-17.9707v-49.9863h11.1748Z" fill="#046938"/>
    <path d="M789.4531,144.8479v6.4531h2.8936v6.4834h-2.8936v21.9209c0,2.6973.1191,4.1992.3584,4.5078s1.2344.4629,2.9863.4629v6.6074h-4.3271c-2.4414,0-4.1846-.1182-5.2285-.3555-1.0449-.2363-1.9648-.7812-2.7607-1.6357s-1.292-1.832-1.4863-2.9336c-.1953-1.1006-.292-3.6895-.292-7.7646v-20.8096h-2.3096v-6.4834h2.3096v-6.4531h10.75Z" fill="#046938"/>
    <path d="M819.1025,141.2971v49.9863h-10.7236v-2.9717c-1.0264,1.2383-2.1055,2.166-3.2383,2.7842-1.1328.6191-2.3184.9287-3.5566.9287-1.6641,0-3.1055-.5098-4.3271-1.5283-1.2207-1.0195-2.0039-2.1973-2.3486-3.5352s-.5176-3.5195-.5176-6.5459v-19.1729c0-3.1494.1729-5.3828.5176-6.7002.3447-1.3164,1.1367-2.4746,2.376-3.4736,1.2383-.998,2.7158-1.4971,4.4326-1.4971,1.3271,0,2.5439.2793,3.6494.8359s2.1104,1.3926,3.0127,2.5059v-11.6162h10.7236ZM808.3789,160.6253c0-1.5029-.1104-2.5117-.3311-3.0264-.2217-.5137-.6602-.7715-1.3145-.7715-.6367,0-1.0664.2314-1.2871.6943-.2217.4629-.332,1.4971-.332,3.1035v20.0684c0,1.667.1064,2.7627.3184,3.2881.2129.5244.6191.7871,1.2217.7871.6895,0,1.1494-.293,1.3799-.8799.2295-.5869.3447-2.0225.3447-4.3066v-18.957Z" fill="#046938"/>
    <path d="M830.0928,181.095v10.1885h-8.0957v-10.1885h8.0957Z" fill="#046938"/>
  </g>
  <g>
    <path d="M250.1792,208.3987l6.3906,49.9863h-11.4204l-.5996-8.9844h-3.9976l-.6719,8.9844h-11.5532l5.7002-49.9863h16.1519ZM244.2568,240.5393c-.5659-5.6611-1.1333-12.6592-1.7021-20.9951-1.1387,9.5723-1.8535,16.5703-2.1445,20.9951h3.8467Z" fill="#046938"/>
    <path d="M282.5166,217.4143v31.5537c0,4.2607-.084,7.0137-.252,8.2588-.1685,1.2451-.7656,2.5635-1.7915,3.9521-1.0269,1.3896-2.4556,2.4492-4.2871,3.1807-1.8315.7305-4.1367,1.0957-6.9146,1.0957-3.4155,0-6.1582-.6748-8.2285-2.0225-2.0708-1.3486-3.1416-3.998-3.2119-7.9502h10.4053c0,1.8115.5659,2.7168,1.6987,2.7168.8135,0,1.3535-.2773,1.6191-.834s.3979-1.7207.3979-3.4922v-3.0908c-.9199.9697-1.8892,1.7021-2.9062,2.1973-1.0181.4961-2.084.7432-3.1987.7432-1.9292,0-3.5171-.4521-4.7646-1.3584-1.2476-.9053-2.1016-2.0947-2.5615-3.5664-.4604-1.4707-.6899-3.5654-.6899-6.2832v-14.8809c0-3.8906.6011-6.6895,1.8047-8.3984,1.2031-1.708,3.0347-2.5625,5.4946-2.5625,1.3447,0,2.5703.3203,3.6763.959,1.106.6396,2.0928,1.5986,2.96,2.877l.7695-3.0947h9.9805ZM271.7666,228.2825c0-1.873-.0928-3.0674-.2788-3.582-.186-.5137-.5972-.7715-1.2344-.7715-.6196,0-1.0576.293-1.314.8799-.2568.5869-.3848,1.7441-.3848,3.4736v13.7695c0,1.832.0972,3.0215.292,3.5664.1943.5459.6016.8184,1.2212.8184.7075,0,1.168-.3291,1.3799-.9883.2124-.6582.3188-2.1504.3188-4.4766v-12.6895Z" fill="#046938"/>
    <path d="M297.0625,217.4143l-.4243,5.3877c1.5566-3.8584,3.813-5.9014,6.7686-6.1289v14.4189c-1.9644,0-3.4067.3086-4.3267.9258-.9204.6172-1.4863,1.4775-1.6987,2.5781-.2124,1.1016-.3188,3.6387-.3188,7.6104v16.1787h-10.7236v-40.9707h10.7236Z" fill="#046938"/>
    <path d="M316.8379,208.3987v6.5146h-11.0425v-6.5146h11.0425ZM316.8379,217.4143v40.9707h-11.0425v-40.9707h11.0425Z" fill="#046938"/>
    <path d="M355.5391,208.3987v49.9863h-9.7949l-5.813-22.7236v22.7236h-9.3438v-49.9863h9.3438l6.2642,22.5078v-22.5078h9.3438Z" fill="#046938"/>
    <path d="M369.2891,233.2835h-10.0601v-2.7471c0-3.1699.314-5.6143.9419-7.333s1.8892-3.2363,3.7827-4.5547c1.8936-1.3164,4.353-1.9756,7.3794-1.9756,3.6274,0,6.3613.7461,8.2021,2.2383,1.8398,1.4932,2.9463,3.3242,3.3179,5.4961s.5571,6.6436.5571,13.415v20.5625h-10.4316v-3.6514c-.6548,1.4648-1.4995,2.5625-2.5347,3.2939-1.0356.7324-2.2695,1.0986-3.7031,1.0986-1.876,0-3.5967-.6133-5.1626-1.8369-1.5664-1.2246-2.3491-3.9062-2.3491-8.043v-3.3652c0-3.0674.4155-5.1562,1.2476-6.2676.8315-1.1123,2.8931-2.4082,6.1846-3.8906,3.521-1.6055,5.4058-2.6865,5.6538-3.2422.2476-.5557.3716-1.6875.3716-3.3955,0-2.1406-.1372-3.5352-.4111-4.1836-.2749-.6484-.73-.9727-1.3672-.9727-.7261,0-1.1772.2725-1.354.8184-.1768.5449-.2651,1.96-.2651,4.2451v4.291ZM372.6865,238.9026c-1.7168,1.4619-2.7119,2.6865-2.9863,3.6748-.2744.9873-.4111,2.4082-.4111,4.2607,0,2.1201.1191,3.4883.3584,4.1064.2388.6172.7119.9258,1.4199.9258.6724,0,1.1104-.2412,1.314-.7256.2031-.4834.3052-1.7549.3052-3.8125v-8.4297Z" fill="#046938"/>
    <path d="M398.4077,211.9495v6.4531h2.8936v6.4834h-2.8936v21.9209c0,2.6973.1196,4.1992.3584,4.5078s1.2344.4629,2.9863.4629v6.6074h-4.3267c-2.4419,0-4.1851-.1182-5.229-.3555-1.0444-.2363-1.9644-.7812-2.7607-1.6357s-1.292-1.832-1.4863-2.9336c-.1953-1.1006-.292-3.6895-.292-7.7646v-20.8096h-2.3096v-6.4834h2.3096v-6.4531h10.75Z" fill="#046938"/>
    <path d="M428.2168,217.4143v40.9707h-10.9097l.186-3.4043c-.7432,1.3818-1.6592,2.418-2.7476,3.1094-1.0884.6904-2.3403,1.0361-3.7559,1.0361-1.6104,0-2.9463-.3301-4.0083-.9883-1.0615-.6582-1.8447-1.5332-2.3491-2.624s-.8184-2.2285-.9424-3.4121-.1855-3.5352-.1855-7.0547v-27.6328h10.7236v27.8799c0,3.1904.084,5.084.2524,5.6807.168.5977.6235.8955,1.3667.8955.7964,0,1.2695-.3086,1.4204-.9258.1499-.6182.2256-2.6045.2256-5.959v-27.5713h10.7236Z" fill="#046938"/>
    <path d="M442.7891,217.4143l-.4248,5.3877c1.5566-3.8584,3.8135-5.9014,6.7686-6.1289v14.4189c-1.9648,0-3.4062.3086-4.3262.9258-.9209.6172-1.4863,1.4775-1.6992,2.5781-.2119,1.1016-.3184,3.6387-.3184,7.6104v16.1787h-10.7236v-40.9707h10.7236Z" fill="#046938"/>
    <path d="M461.1035,233.2835h-10.0596v-2.7471c0-3.1699.3135-5.6143.9424-7.333.6279-1.7188,1.8887-3.2363,3.7822-4.5547,1.8936-1.3164,4.3535-1.9756,7.3789-1.9756,3.6279,0,6.3613.7461,8.2021,2.2383,1.8408,1.4932,2.9463,3.3242,3.3184,5.4961.3711,2.1719.5576,6.6436.5576,13.415v20.5625h-10.4316v-3.6514c-.6553,1.4648-1.5,2.5625-2.5352,3.2939-1.0352.7324-2.2695,1.0986-3.7031,1.0986-1.876,0-3.5967-.6133-5.1631-1.8369-1.5654-1.2246-2.3486-3.9062-2.3486-8.043v-3.3652c0-3.0674.415-5.1562,1.2471-6.2676.832-1.1123,2.8936-2.4082,6.1846-3.8906,3.5215-1.6055,5.4062-2.6865,5.6543-3.2422s.3721-1.6875.3721-3.3955c0-2.1406-.1377-3.5352-.4121-4.1836s-.7295-.9727-1.3672-.9727c-.7256,0-1.1768.2725-1.3535.8184-.1768.5449-.2656,1.96-.2656,4.2451v4.291ZM464.502,238.9026c-1.7168,1.4619-2.7129,2.6865-2.9863,3.6748-.2744.9873-.4121,2.4082-.4121,4.2607,0,2.1201.1201,3.4883.3584,4.1064.2393.6172.7129.9258,1.4209.9258.6719,0,1.1094-.2412,1.3135-.7256.2031-.4834.3057-1.7549.3057-3.8125v-8.4297Z" fill="#046938"/>
    <path d="M489.957,208.3987v49.9863h-11.042v-49.9863h11.042Z" fill="#046938"/>
    <path d="M503.707,208.3987h18.9258v10.0039h-7.751v9.4785h6.9023v9.5088h-6.9023v20.9951h-11.1748v-49.9863Z" fill="#046938"/>
    <path d="M549.3105,238.6253h-13.8828v8.8613c0,1.8525.1152,3.0459.3447,3.5811.2305.5352.6729.8027,1.3271.8027.8145,0,1.3584-.3555,1.6328-1.0654s.4111-2.084.4111-4.1211v-5.4033h10.167v3.0254c0,2.5322-.1377,4.4766-.4121,5.8359-.2744,1.3584-.915,2.8096-1.9238,4.3525-1.0088,1.5439-2.2871,2.7021-3.8359,3.4736-1.5488.7725-3.4902,1.1582-5.8262,1.1582-2.2656,0-4.2646-.3809-5.999-1.1426s-3.084-1.8066-4.0479-3.1338c-.9648-1.3271-1.6328-2.7891-2.0039-4.3838-.3721-1.5957-.5576-3.916-.5576-6.9629v-11.9482c0-3.582.415-6.4062,1.2471-8.4756.832-2.0684,2.1943-3.6533,4.0879-4.7549,1.8936-1.1006,4.0703-1.6514,6.5303-1.6514,3.0078,0,5.4902.6641,7.4453,1.9912,1.9551,1.3281,3.3271,3.0879,4.1143,5.2803.7871,2.1914,1.1816,5.2744,1.1816,9.2471v5.4336ZM538.5596,231.9563v-2.9951c0-2.1191-.0967-3.4883-.292-4.1064-.1943-.6172-.5928-.9258-1.1943-.9258-.7432,0-1.2031.2617-1.3799.7871-.1777.5244-.2656,1.9404-.2656,4.2451v2.9951h3.1318Z" fill="#046938"/>
    <path d="M563.5371,217.4143l-.4248,5.3877c1.5576-3.8584,3.8135-5.9014,6.7686-6.1289v14.4189c-1.9639,0-3.4062.3086-4.3262.9258s-1.4863,1.4775-1.6992,2.5781c-.2119,1.1016-.3184,3.6387-.3184,7.6104v16.1787h-10.7236v-40.9707h10.7236Z" fill="#046938"/>
    <path d="M584.5596,211.9495v6.4531h2.8936v6.4834h-2.8936v21.9209c0,2.6973.1191,4.1992.3584,4.5078s1.2344.4629,2.9863.4629v6.6074h-4.3271c-2.4414,0-4.1846-.1182-5.2285-.3555-1.0449-.2363-1.9648-.7812-2.7607-1.6357s-1.292-1.832-1.4863-2.9336c-.1953-1.1006-.292-3.6895-.292-7.7646v-20.8096h-2.3096v-6.4834h2.3096v-6.4531h10.75Z" fill="#046938"/>
    <path d="M600.8574,208.3987v6.5146h-11.042v-6.5146h11.042ZM600.8574,217.4143v40.9707h-11.042v-40.9707h11.042Z" fill="#046938"/>
    <path d="M615.749,208.3987v49.9863h-11.042v-49.9863h11.042Z" fill="#046938"/>
    <path d="M630.6406,208.3987v6.5146h-11.042v-6.5146h11.042ZM630.6406,217.4143v40.9707h-11.042v-40.9707h11.042Z" fill="#046938"/>
    <path d="M651.1855,217.4143v9.0771l-7.9102,23.6807h7.9102v8.2129h-18.2891v-8.583l8.0762-24.1748h-7.2529v-8.2129h17.4658Z" fill="#046938"/>
    <path d="M677.8623,238.6253h-13.8828v8.8613c0,1.8525.1152,3.0459.3447,3.5811.2305.5352.6729.8027,1.3271.8027.8145,0,1.3584-.3555,1.6328-1.0654s.4111-2.084.4111-4.1211v-5.4033h10.167v3.0254c0,2.5322-.1377,4.4766-.4121,5.8359-.2744,1.3584-.915,2.8096-1.9238,4.3525-1.0088,1.5439-2.2871,2.7021-3.8359,3.4736-1.5488.7725-3.4902,1.1582-5.8262,1.1582-2.2656,0-4.2646-.3809-5.999-1.1426s-3.084-1.8066-4.0479-3.1338c-.9648-1.3271-1.6328-2.7891-2.0039-4.3838-.3721-1.5957-.5576-3.916-.5576-6.9629v-11.9482c0-3.582.415-6.4062,1.2471-8.4756.832-2.0684,2.1943-3.6533,4.0879-4.7549,1.8936-1.1006,4.0703-1.6514,6.5303-1.6514,3.0078,0,5.4902.6641,7.4453,1.9912,1.9551,1.3281,3.3271,3.0879,4.1143,5.2803.7871,2.1914,1.1816,5.2744,1.1816,9.2471v5.4336ZM667.1113,231.9563v-2.9951c0-2.1191-.0967-3.4883-.292-4.1064-.1943-.6172-.5928-.9258-1.1943-.9258-.7432,0-1.2031.2617-1.3799.7871-.1777.5244-.2656,1.9404-.2656,4.2451v2.9951h3.1318Z" fill="#046938"/>
    <path d="M692.0898,217.4143l-.4248,5.3877c1.5576-3.8584,3.8135-5.9014,6.7686-6.1289v14.4189c-1.9639,0-3.4062.3086-4.3262.9258s-1.4863,1.4775-1.6992,2.5781c-.2119,1.1016-.3184,3.6387-.3184,7.6104v16.1787h-10.7236v-40.9707h10.7236Z" fill="#046938"/>
    <path d="M736.126,208.3987v33.4062c0,3.7881-.1055,6.4482-.3184,7.9814-.2119,1.5332-.8408,3.1084-1.8848,4.7236-1.0439,1.6162-2.4199,2.8408-4.127,3.6738-1.708.834-3.7207,1.251-6.0391,1.251-2.5664,0-4.8311-.4941-6.7949-1.4824-1.9648-.9873-3.4336-2.2734-4.4062-3.8594-.9736-1.584-1.5488-3.2568-1.7256-5.0166s-.2656-5.46-.2656-11.0996v-29.5781h11.1748v37.4824c0,2.1816.1016,3.5762.3057,4.1836.2031.6064.6143.9102,1.2344.9102.707,0,1.1631-.334,1.3672-1.0029.2031-.6689.3047-2.249.3047-4.7393v-36.834h11.1748Z" fill="#046938"/>
    <path d="M751.0439,217.4143l-.1855,3.7744c.7783-1.5049,1.7295-2.6338,2.8535-3.3867s2.4199-1.1289,3.8887-1.1289c1.8408,0,3.3447.5049,4.5127,1.5127,1.168,1.0088,1.9199,2.2803,2.2559,3.8135s.5049,4.0908.5049,7.6719v28.7139h-10.7236v-28.374c0-2.8193-.0801-4.5381-.2393-5.1562-.1592-.6172-.6016-.9258-1.3271-.9258-.7607,0-1.2393.3545-1.4336,1.0654-.1943.71-.292,2.6084-.292,5.6963v27.6943h-10.7236v-40.9707h10.9092Z" fill="#046938"/>
    <path d="M779.6055,208.3987v6.5146h-11.042v-6.5146h11.042ZM779.6055,217.4143v40.9707h-11.042v-40.9707h11.042Z" fill="#046938"/>
    <path d="M794.7617,211.9495v6.4531h2.8936v6.4834h-2.8936v21.9209c0,2.6973.1191,4.1992.3584,4.5078s1.2344.4629,2.9863.4629v6.6074h-4.3271c-2.4414,0-4.1846-.1182-5.2285-.3555-1.0449-.2363-1.9648-.7812-2.7607-1.6357s-1.292-1.832-1.4863-2.9336c-.1953-1.1006-.292-3.6895-.292-7.7646v-20.8096h-2.3096v-6.4834h2.3096v-6.4531h10.75Z" fill="#046938"/>
  </g>
</svg>